<svg width="24" height="24" viewBox="0 0 24 24" fill="none" xmlns="http://www.w3.org/2000/svg">
<path d="M7.71456 22.2858C11.5017 22.2858 14.5717 19.2158 14.5717 15.4287C14.5717 11.6416 11.5017 8.57153 7.71456 8.57153C3.92747 8.57153 0.857422 11.6416 0.857422 15.4287C0.857422 19.2158 3.92747 22.2858 7.71456 22.2858Z" stroke="#172C45" stroke-linecap="round" stroke-linejoin="round"/>
<path d="M16.2861 22.2858C20.0732 22.2858 23.1432 19.2158 23.1432 15.4287C23.1432 11.6416 20.0732 8.57153 16.2861 8.57153C12.499 8.57153 9.42896 11.6416 9.42896 15.4287C9.42896 19.2158 12.499 22.2858 16.2861 22.2858Z" stroke="#172C45" stroke-linecap="round" stroke-linejoin="round"/>
<path d="M12.0007 15.4286C15.7878 15.4286 18.8578 12.3586 18.8578 8.5715C18.8578 4.7844 15.7878 1.71436 12.0007 1.71436C8.2136 1.71436 5.14355 4.7844 5.14355 8.5715C5.14355 12.3586 8.2136 15.4286 12.0007 15.4286Z" stroke="#172C45" stroke-linecap="round" stroke-linejoin="round"/>
</svg>
