<svg width="60" height="60" viewBox="0 0 60 60" fill="none" xmlns="http://www.w3.org/2000/svg">
<path d="M53.5713 6.42859L38.957 21.0429" stroke="#172C45" stroke-width="2" stroke-linecap="round" stroke-linejoin="round"/>
<path d="M6.42969 6.42847L21.044 21.0428" stroke="#172C45" stroke-width="2" stroke-linecap="round" stroke-linejoin="round"/>
<path d="M6.42969 53.5716L21.044 38.9573" stroke="#172C45" stroke-width="2" stroke-linecap="round" stroke-linejoin="round"/>
<path d="M53.5713 53.5714L38.957 38.9572" stroke="#172C45" stroke-width="2" stroke-linecap="round" stroke-linejoin="round"/>
<path d="M29.9997 57.8571C45.3848 57.8571 57.8569 45.385 57.8569 30C57.8569 14.6149 45.3848 2.14282 29.9997 2.14282C14.6146 2.14282 2.14258 14.6149 2.14258 30C2.14258 45.385 14.6146 57.8571 29.9997 57.8571Z" stroke="#172C45" stroke-width="2" stroke-linecap="round" stroke-linejoin="round"/>
<path d="M29.9983 42.6429C36.9808 42.6429 42.6412 36.9825 42.6412 30C42.6412 23.0176 36.9808 17.3572 29.9983 17.3572C23.0159 17.3572 17.3555 23.0176 17.3555 30C17.3555 36.9825 23.0159 42.6429 29.9983 42.6429Z" stroke="#172C45" stroke-width="2" stroke-linecap="round" stroke-linejoin="round"/>
</svg>
