<svg width="30" height="30" viewBox="0 0 30 30" fill="none" xmlns="http://www.w3.org/2000/svg">
<path d="M11.2065 4.82129L12.1279 2.44272C12.2833 2.04 12.5567 1.6936 12.9123 1.44889C13.2679 1.20418 13.6891 1.07256 14.1208 1.07129H15.8779C16.3096 1.07256 16.7308 1.20418 17.0864 1.44889C17.442 1.6936 17.7154 2.04 17.8708 2.44272L18.7922 4.82129L21.9208 6.62129L24.4494 6.23557C24.8704 6.17843 25.2989 6.24773 25.6805 6.4347C26.062 6.62166 26.3794 6.91783 26.5922 7.28557L27.4494 8.78557C27.669 9.15918 27.7702 9.5906 27.7396 10.0229C27.709 10.4552 27.548 10.8681 27.2779 11.207L25.7137 13.1999V16.7999L27.3208 18.7927C27.5909 19.1317 27.7519 19.5445 27.7825 19.9768C27.8131 20.4091 27.7119 20.8405 27.4922 21.2141L26.6351 22.7141C26.4223 23.0819 26.1049 23.3781 25.7233 23.565C25.3418 23.752 24.9133 23.8213 24.4922 23.7641L21.9637 23.3784L18.8351 25.1784L17.9137 27.557C17.7583 27.9597 17.4849 28.3061 17.1293 28.5508C16.7737 28.7955 16.3525 28.9272 15.9208 28.9284H14.1208C13.6891 28.9272 13.2679 28.7955 12.9123 28.5508C12.5567 28.3061 12.2833 27.9597 12.1279 27.557L11.2065 25.1784L8.07795 23.3784L5.54938 23.7641C5.12834 23.8213 4.69982 23.752 4.31827 23.565C3.93671 23.3781 3.61935 23.0819 3.40652 22.7141L2.54937 21.2141C2.32974 20.8405 2.22854 20.4091 2.25915 19.9768C2.28975 19.5445 2.45072 19.1317 2.7208 18.7927L4.28509 16.7999V13.1999L2.67795 11.207C2.40786 10.8681 2.24689 10.4552 2.21629 10.0229C2.18568 9.5906 2.28688 9.15918 2.50652 8.78557L3.36366 7.28557C3.5765 6.91783 3.89386 6.62166 4.27541 6.4347C4.65696 6.24773 5.08548 6.17843 5.50652 6.23557L8.03509 6.62129L11.2065 4.82129Z" stroke="white" stroke-linecap="round" stroke-linejoin="round"/>
<path d="M14.9989 21.4284C18.5493 21.4284 21.4275 18.5503 21.4275 14.9999C21.4275 11.4495 18.5493 8.57129 14.9989 8.57129C11.4485 8.57129 8.57031 11.4495 8.57031 14.9999C8.57031 18.5503 11.4485 21.4284 14.9989 21.4284Z" stroke="white" stroke-linecap="round" stroke-linejoin="round"/>
<path d="M15 8.57129V14.9999H21.4286" stroke="white" stroke-linecap="round" stroke-linejoin="round"/>
<path d="M14.9999 14.9998L10.457 19.5426" stroke="white" stroke-linecap="round" stroke-linejoin="round"/>
</svg>
