<?xml version="1.0" encoding="UTF-8"?>
<!-- Generator: Adobe Illustrator 25.2.1, SVG Export Plug-In . SVG Version: 6.00 Build 0)  -->
<svg xmlns="http://www.w3.org/2000/svg" xmlns:xlink="http://www.w3.org/1999/xlink" version="1.1" id="Capa_1" x="0px" y="0px" viewBox="0 0 512 512" style="enable-background:new 0 0 512 512;" xml:space="preserve" width="512" height="512">
<g>
	<path style="fill:#FFFFFF;" d="M243.371,504.505c-2.882,0-5.696-0.895-8.048-2.565c-0.097-0.068-9.149-6.494-22.615-16.345   c-6.846-0.771-13.67-1.837-20.403-3.189c-7.526,8.75-18.601,14.013-30.514,14.013c-11.331,0-22.115-4.787-29.747-13.169   c-6.072-5.529-10.258-12.715-12.103-20.563c-0.369,0.15-0.731,0.293-1.096,0.427c-0.557,0.201-1.091,0.373-1.63,0.542   c-0.684,0.214-1.306,0.402-1.936,0.566c-0.6,0.157-1.202,0.293-1.811,0.422c-0.589,0.125-1.202,0.245-1.818,0.345   c-0.609,0.099-1.232,0.185-1.857,0.258c-0.598,0.069-1.18,0.123-1.766,0.165c-0.609,0.045-1.268,0.078-1.929,0.094l-0.781,0.009   l-0.906-0.009c-0.67-0.013-1.349-0.036-2.029-0.083c-0.507-0.036-0.992-0.085-1.474-0.137c-0.794-0.086-1.503-0.172-2.212-0.287   c-0.405-0.067-0.801-0.144-1.198-0.224c-0.926-0.185-1.691-0.345-2.45-0.543c-0.353-0.092-0.688-0.19-1.021-0.292   c-0.892-0.262-1.716-0.513-2.529-0.806c-0.185-0.068-0.498-0.19-0.731-0.285c-4.779-1.841-9.083-4.529-12.807-8   c-0.801-0.731-1.601-1.529-2.35-2.351c-7.129-7.862-10.774-18.046-10.288-28.697c0.179-3.458,0.79-6.84,1.811-10.078   C23.763,368.826,0,310.122,0,247.307c0-6.918,0.306-13.949,0.908-20.896c3.253-37.714,15.572-74.417,35.699-106.473   c-2.04-24.233,2.638-39.371,14.238-46.205c4.868-2.857,10.041-4.3,15.395-4.3c3.557,0,7.136,0.661,10.645,1.95   c0.333-0.31,0.668-0.619,1.005-0.927c-0.238-1.114-0.335-2.246-0.294-3.37c-0.134-1.258-0.609-5.081-2.291-15.561   c-1.487-9.202,1.069-18.621,7.018-25.828l0.109-0.135c0.283-0.379,0.584-0.743,0.906-1.091c4.256-4.637,9.692-7.915,15.721-9.481   l0.593-0.145c3.111-0.801,6.45-1.555,9.93-2.241c0.167-0.033,0.711-0.126,0.813-0.143c2.746-0.541,5.771-1.055,9.224-1.571   c0.355-0.063,0.713-0.118,1.062-0.163c3.165-0.461,6.163-0.837,9.147-1.143c0.389-0.057,0.734-0.092,1.014-0.115   c1.587-0.164,3.213-0.322,4.883-0.47c1.564-0.697,3.285-1.116,5.098-1.19c0,0,0.933-0.034,1.121-0.034   c1.286,0,2.556,0.178,3.774,0.522c0.699-0.039,1.417-0.076,2.142-0.107c0.885-0.214,1.802-0.344,2.746-0.382   c0,0,0.939-0.033,1.121-0.033c0.838,0,1.666,0.076,2.481,0.223c0.86-0.011,1.712-0.017,2.552-0.017   c0.618,0,1.229,0.002,1.836,0.008c0.58-0.096,1.17-0.157,1.77-0.181c0,0,0.942-0.033,1.121-0.033c1.103,0,2.192,0.131,3.249,0.385   c0.79,0.033,1.562,0.07,2.318,0.112c0.982-0.264,2.01-0.422,3.072-0.464c0,0,0.942-0.033,1.121-0.033   c2.126,0,4.206,0.487,6.09,1.404c1.653,0.204,3.283,0.431,4.875,0.683c0.566,0.064,1.071,0.151,1.506,0.241   c3.185,0.512,6.407,1.157,9.588,1.921c15.266-3.007,30.904-4.529,46.534-4.529c35.533,0,69.718,7.592,101.604,22.565   c19.11,8.947,36.937,20.362,52.973,33.921c6.74,5.684,13.274,11.853,19.452,18.367c5.599,2.522,9.885,7.381,11.68,13.241   c21.807,26.665,37.705,57.933,46.362,91.119l3.679,0.564c11.148,1.708,21.023,7.489,27.806,16.279   c6.935,8.988,9.824,20.02,8.13,31.062l-9.719,63.41c0.265,1.469,0.297,3.007,0.059,4.566l-0.163,1.069   c-0.24,1.568-0.731,3.034-1.429,4.364l-15.182,99.064c-0.559,3.647-2.543,6.922-5.517,9.106c-2.4,1.764-5.289,2.698-8.232,2.698   c-0.702,0-1.406-0.053-2.108-0.161l-53.689-8.228c-27.378,29.473-61.667,51.617-99.661,64.308   c-21.2,19.408-45.527,29.396-72.358,29.696C243.476,504.505,243.424,504.505,243.371,504.505z"/>
	<g>
		<path style="fill:#9ED9E5;" d="M464.704,244.989c0,100.106-65.078,184.987-155.257,214.636    c-11.052,3.666-22.504,6.476-34.252,8.376c-9.045,1.472-18.25,2.381-27.615,2.756c-2.917,0.107-5.834,0.161-8.777,0.161    c-1.311,0-2.622,0-3.934-0.054c-5.218-0.08-10.382-0.348-15.493-0.776c-19.561-1.659-38.4-5.834-56.221-12.149    c-87.583-31.121-150.28-114.717-150.28-212.95c0-6.636,0.295-13.219,0.856-19.695c5.298-61.439,35.215-115.867,79.85-153.331    c13.567-11.4,28.525-21.247,44.554-29.221c30.318-15.146,64.49-23.655,100.668-23.655c34.198,0,66.631,7.6,95.691,21.247    c18.062,8.456,34.841,19.213,49.906,31.951c44.046,37.142,73.668,90.821,79.315,151.457    C464.383,230.726,464.704,237.817,464.704,244.989z"/>
		<g>
			<g>
				<g>
					<g>
						<path style="fill:#FFEEDC;" d="M430.251,175.877l-3.754,24.496l-6.566-1.006l3.754-24.496        c1.148-7.491-4.29-14.538-12.147-15.742l-122.558-18.784c-7.835-1.201-15.156,3.891-16.304,11.382l-3.156,20.594l-6.566-1.006        l3.156-20.594c1.676-10.933,12.383-18.39,23.829-16.635l122.558,18.784C423.966,154.626,431.927,164.944,430.251,175.877z"/>
					</g>
					
						<rect x="262.736" y="164.417" transform="matrix(0.1515 -0.9885 0.9885 0.1515 60.6359 406.1127)" style="fill:#412424;" width="8.254" height="6.642"/>
					
						<rect x="418.038" y="190.519" transform="matrix(0.1515 -0.9885 0.9885 0.1515 168.2795 583.7161)" style="fill:#412424;" width="12.201" height="6.642"/>
				</g>
				<path style="fill:#FFEEDC;" d="M496.741,230.188l-26.434,172.473l-292.059-44.763l26.434-172.473      c2.296-14.981,16.894-25.173,32.608-22.764l235.157,36.041C488.161,201.111,499.037,215.207,496.741,230.188z"/>
				<path style="fill:#FF998D;fill-opacity:0.39;" d="M496.741,230.188l-26.434,172.473l-49.176-7.537l30.591-199.598l20.725,3.176      C488.161,201.111,499.037,215.207,496.741,230.188z"/>
				
					<rect x="338.382" y="126.209" transform="matrix(0.1515 -0.9885 0.9885 0.1515 14.7493 569.2085)" style="fill:#412424;" width="1.081" height="299.608"/>
				<g>
					<path style="fill:#9ED9E5;" d="M355.379,280.576c-2.826,18.438-20.794,30.982-40.134,28.018       c-19.339-2.964-32.725-20.314-29.9-38.751c2.826-18.438,20.794-30.982,40.133-28.018       C344.818,244.789,358.205,262.139,355.379,280.576z"/>
					<g>
						<polygon style="fill:#FFFFFF;" points="321.89,292.936 314.769,291.932 319.471,258.308 326.592,259.312       "/>
						<polygon style="fill:#FFFFFF;" points="302.575,276.53 303.525,269.74 338.786,274.714 337.837,281.504       "/>
					</g>
				</g>
			</g>
			<polygon style="fill:#00BDF9;" points="296.008,129.578 294.035,147.73 406.104,164.304 410.051,145.757    "/>
		</g>
		<g>
			<path style="fill:#00BDF9;" d="M341.794,409.36c0,0-29.211,78.128-99.457,78.916c0,0-112.857-80.052-145.175-116.52     c-0.58-0.626-1.113-1.252-1.623-1.855c-29.976-35.517-37.093-71.822-37.093-71.822s-29.188-9.482-25.247-45.787     c3.825-35.169,9.853-44.396,10.224-44.953l0.023-0.023c0,0-22.882-63.128,7.906-76.552c0,0-7.906-39.458,5.518-47.364     c13.423-7.882,26.058,5.541,31.576,15c5.518,9.482,122.316,172.832,122.316,172.832L341.794,409.36z"/>
			<path style="fill:#412424;" d="M200.775,342.906c-0.238,0-0.461-0.147-0.546-0.384c-6.713-18.747-7.689-39.694-2.749-58.984     c1.418-5.539,3.344-11.122,5.205-16.523c4.467-12.958,9.085-26.358,6.87-39.811c-0.052-0.316,0.162-0.614,0.478-0.666     c0.309-0.055,0.615,0.162,0.666,0.478c2.264,13.743-2.403,27.282-6.918,40.377c-1.854,5.378-3.771,10.94-5.178,16.432     c-4.883,19.069-3.919,39.775,2.717,58.305c0.108,0.302-0.049,0.634-0.35,0.741C200.906,342.895,200.84,342.906,200.775,342.906z"/>
			<path style="fill:#412424;" d="M70.29,145.942c-0.228,0-0.443-0.135-0.535-0.358c-6.457-15.573-19.007-14.688-19.537-14.637     c-0.301,0.019-0.6-0.208-0.627-0.528c-0.027-0.318,0.207-0.599,0.526-0.627c0.14-0.007,13.917-1.034,20.709,15.348     c0.122,0.295-0.018,0.635-0.314,0.757C70.44,145.929,70.365,145.942,70.29,145.942z"/>
			<path style="fill:#00BDF9;" d="M201.696,268.481c0,0-7.103-133.379,23.677-139.692c30.78-6.314,37.093,116.016,56.824,151.531     c19.73,35.515,75.765,103.388,75.765,103.388l-32.358,54.456L201.696,268.481z"/>
			<g>
				<path style="fill:#FFA34F;" d="M228.217,242.415c-0.951,15.023-1.808,27.032-2.226,32.805c-0.186,2.457-1.646,4.59-3.849,5.703      c-8.184,4.08-30.672,13.052-70.57,13.377v0.023h-2.225V294.3c-12.357-0.093-23.044-1.02-32.132-2.388      c-20.309-3.014-32.781-8.184-38.415-10.989c-2.202-1.113-3.663-3.246-3.849-5.703c-0.371-4.915-1.043-14.327-1.808-26.29      c-1.948-30.046-4.498-76.088-4.266-106.783c0.07-9.111,0.371-16.854,1.02-22.442c4.15-35.517,26.638-40.826,26.638-40.826      V61.121l20.935-4.729l31.877-7.21v-0.51l1.113,0.255l1.113-0.255v0.51l52.835,11.939v17.759c0,0,22.488,5.309,26.614,40.826      c0.417,3.501,0.696,7.859,0.858,12.89C232.807,160.601,230.303,208.985,228.217,242.415z"/>
				<path style="fill:#FFEEDC;" d="M228.217,242.415c-51.629-2.759-104.302-2.504-155.074,6.515      c-1.948-30.046-4.498-76.088-4.266-106.783c7.651-3.269,15.811-5.425,23.949-7.326c41.962-9.876,86.033-14.049,128.181-5.008      c3.663,0.788,7.303,1.669,10.873,2.782C232.807,160.601,230.303,208.985,228.217,242.415z"/>
				<g>
					
						<rect x="148.681" y="144.202" transform="matrix(0.999 -0.0453 0.0453 0.999 -8.0505 7.22)" style="fill:#FF6963;" width="12.9" height="73.747"/>
					
						<rect x="147.686" y="149.131" transform="matrix(0.0444 0.999 -0.999 0.0444 329.1323 18.0484)" style="fill:#FF6963;" width="14.891" height="63.888"/>
				</g>
				<path style="opacity:0.2;fill:#412424;" d="M105.715,262.005c2.99,10.27,7.071,20.17,11.499,29.907      c-20.309-3.014-32.781-8.184-38.415-10.989c-2.202-1.113-3.663-3.246-3.849-5.703c-0.371-4.915-1.043-14.327-1.808-26.29      c-1.948-30.046-4.498-76.088-4.266-106.783c0.07-9.111,0.371-16.854,1.02-22.442c4.15-35.517,26.638-40.826,26.638-40.826      V61.121l20.935-4.729c0.046,1.321,0.046,2.62,0.046,3.941c-0.046,9.25-0.742,18.593-3.663,27.426      c-2.411,7.349-6.306,14.096-9.366,21.213c-13.122,30.509-10.455,65.192-7.418,98.275      C98.784,225.677,100.546,244.247,105.715,262.005z"/>
				<g>
					<g>
						<path style="fill:#FFEEDC;" d="M207.537,42.528l-0.116,22.72c-2.017-0.44-4.08-0.835-6.167-1.206        c-0.185-0.023-0.371-0.046-0.58-0.093c-3.014-0.51-6.12-0.951-9.25-1.345c-0.185-0.023-0.394-0.046-0.58-0.07        c-3.037-0.348-6.12-0.672-9.227-0.904c-0.185-0.023-0.394-0.046-0.58-0.046c-3.06-0.255-6.143-0.44-9.204-0.58        c-0.209,0-0.394,0-0.58-0.023c-3.083-0.139-6.144-0.232-9.204-0.278h-0.58c-3.083-0.046-6.143-0.046-9.18-0.023h-0.58        c-3.107,0.023-6.19,0.093-9.181,0.209c-0.209-0.023-0.394,0-0.58,0c-3.153,0.093-6.213,0.232-9.181,0.394        c-0.185,0-0.394,0.023-0.58,0.023c-3.176,0.162-6.236,0.371-9.157,0.58c-0.208,0-0.394,0.023-0.58,0.023        c-3.245,0.255-6.306,0.487-9.157,0.765c-0.185,0-0.394,0.023-0.58,0.046c-3.362,0.301-6.445,0.603-9.157,0.904        c-0.209,0.023-0.394,0.046-0.58,0.07c-3.872,0.417-6.978,0.811-9.134,1.09c-0.209,0.023-0.394,0.046-0.58,0.07        c-1.809,0.255-2.805,0.394-2.805,0.394c0.325-0.325-1.066-9.575-2.457-18.245c-0.881-5.448,0.719-10.78,4.011-14.768        c0.185-0.232,0.371-0.44,0.533-0.672c2.342-2.55,5.402-4.498,8.972-5.425c0.185-0.046,0.394-0.093,0.58-0.139        c2.689-0.696,5.726-1.391,9.134-2.063c0.185-0.023,0.371-0.07,0.556-0.093c2.805-0.556,5.842-1.066,9.135-1.553        c0.185-0.046,0.394-0.07,0.58-0.093c2.851-0.417,5.912-0.811,9.134-1.136c0.185-0.046,0.394-0.046,0.58-0.07        c2.898-0.301,5.935-0.58,9.157-0.811c0.185,0,0.371-0.023,0.556-0.046c1.414-0.093,2.851-0.185,4.335-0.255        c1.646-0.093,3.269-0.162,4.845-0.209c0.208,0,0.394-0.023,0.58-0.023c3.199-0.093,6.259-0.093,9.18-0.023        c0.209,0,0.394,0.023,0.58,0.023c3.246,0.093,6.306,0.255,9.204,0.51c0.185,0.023,0.394,0.023,0.58,0.046        c3.315,0.301,6.399,0.696,9.25,1.159c0.208,0,0.394,0.046,0.58,0.093c3.408,0.533,6.515,1.182,9.273,1.855        c0.185,0.046,0.394,0.093,0.58,0.139c1.692,0.417,3.245,0.858,4.683,1.298c1.669,0.51,3.222,1.252,4.637,2.179        c0.208,0.116,0.394,0.255,0.58,0.394C204.616,30.751,207.583,36.407,207.537,42.528z"/>
					</g>
					<g style="opacity:0.41;">
						<g>
							<path style="fill:#BB8C98;" d="M93.846,64.784c-0.209,0.023-0.394,0.046-0.58,0.07l-1.252-32.619         c0.185-0.232,0.371-0.44,0.533-0.672L93.846,64.784z"/>
						</g>
						<g>
							<path style="fill:#BB8C98;" d="M103.559,63.625c-0.209,0.023-0.394,0.046-0.58,0.07l-1.461-37.557         c0.185-0.046,0.394-0.093,0.58-0.139L103.559,63.625z"/>
						</g>
						<g>
							<path style="fill:#BB8C98;" d="M103.559,63.625c-0.209,0.023-0.394,0.046-0.58,0.07l-1.461-37.557         c0.185-0.046,0.394-0.093,0.58-0.139L103.559,63.625z"/>
						</g>
						<g>
							<path style="fill:#BB8C98;" d="M113.296,62.674c-0.185,0-0.394,0.023-0.58,0.046l-1.484-38.786         c0.185-0.023,0.371-0.07,0.556-0.093L113.296,62.674z"/>
						</g>
						<g>
							<path style="fill:#BB8C98;" d="M113.296,62.674c-0.185,0-0.394,0.023-0.58,0.046l-1.484-38.786         c0.185-0.023,0.371-0.07,0.556-0.093L113.296,62.674z"/>
						</g>
						<g>
							<path style="fill:#BB8C98;" d="M123.033,61.886c-0.208,0-0.394,0.023-0.58,0.023l-1.53-39.62         c0.185-0.046,0.394-0.07,0.58-0.093L123.033,61.886z"/>
						</g>
						<g>
							<path style="fill:#BB8C98;" d="M123.033,61.886c-0.208,0-0.394,0.023-0.58,0.023l-1.53-39.62         c0.185-0.046,0.394-0.07,0.58-0.093L123.033,61.886z"/>
						</g>
						<g>
							<path style="fill:#BB8C98;" d="M132.77,61.283c-0.185,0-0.394,0.023-0.58,0.023l-1.553-40.246         c0.185-0.046,0.394-0.046,0.58-0.07L132.77,61.283z"/>
						</g>
						<g>
							<path style="fill:#BB8C98;" d="M132.77,61.283c-0.185,0-0.394,0.023-0.58,0.023l-1.553-40.246         c0.185-0.046,0.394-0.046,0.58-0.07L132.77,61.283z"/>
						</g>
						<g>
							<path style="fill:#BB8C98;" d="M142.531,60.889c-0.209-0.023-0.394,0-0.58,0l-1.576-40.71l-0.023-0.788l0.556-0.023         l0.023,0.765L142.531,60.889z"/>
						</g>
						<g>
							<path style="fill:#BB8C98;" d="M142.531,60.889c-0.209-0.023-0.394,0-0.58,0l-1.576-40.71l-0.023-0.788l0.556-0.023         l0.023,0.765L142.531,60.889z"/>
						</g>
						<g>
							<polygon style="fill:#BB8C98;" points="152.291,60.68 151.711,60.68 150.112,19.669 150.112,19.391 150.691,19.368          150.691,19.646        "/>
						</g>
						<g>
							<polygon style="fill:#BB8C98;" points="152.291,60.68 151.711,60.68 150.112,19.669 150.112,19.391 150.691,19.368          150.691,19.646        "/>
						</g>
						<g>
							<polygon style="fill:#BB8C98;" points="162.051,60.704 161.471,60.704 159.872,19.623 159.872,19.391 160.451,19.368          160.451,19.646        "/>
						</g>
						<g>
							<polygon style="fill:#BB8C98;" points="162.051,60.704 161.471,60.704 159.872,19.623 159.872,19.391 160.451,19.368          160.451,19.646        "/>
						</g>
						<g>
							<path style="fill:#BB8C98;" d="M171.835,61.005c-0.209,0-0.394,0-0.58-0.023l-1.6-40.826l-0.023-0.765l0.58-0.023         l0.023,0.835L171.835,61.005z"/>
						</g>
						<g>
							<path style="fill:#BB8C98;" d="M171.835,61.005c-0.209,0-0.394,0-0.58-0.023l-1.6-40.826l-0.023-0.765l0.58-0.023         l0.023,0.835L171.835,61.005z"/>
						</g>
						<g>
							<path style="fill:#BB8C98;" d="M181.618,61.631c-0.185-0.023-0.394-0.046-0.58-0.046l-1.553-40.223         c0.208,0,0.394,0.046,0.58,0.093L181.618,61.631z"/>
						</g>
						<g>
							<path style="fill:#BB8C98;" d="M181.618,61.631c-0.185-0.023-0.394-0.046-0.58-0.046l-1.553-40.223         c0.208,0,0.394,0.046,0.58,0.093L181.618,61.631z"/>
						</g>
						<g>
							<path style="fill:#BB8C98;" d="M191.424,62.605c-0.185-0.023-0.394-0.046-0.58-0.07l-1.507-39.226         c0.185,0.046,0.394,0.093,0.58,0.139L191.424,62.605z"/>
						</g>
						<g>
							<path style="fill:#BB8C98;" d="M191.424,62.605c-0.185-0.023-0.394-0.046-0.58-0.07l-1.507-39.226         c0.185,0.046,0.394,0.093,0.58,0.139L191.424,62.605z"/>
						</g>
						<g>
							<path style="fill:#BB8C98;" d="M201.254,64.042c-0.185-0.023-0.371-0.046-0.58-0.093l-1.437-37.024         c0.208,0.116,0.394,0.255,0.58,0.394L201.254,64.042z"/>
						</g>
					</g>
				</g>
			</g>
			<g>
				<path style="fill:#00BDF9;" d="M134.602,330.837l-38.624,40.525c-0.58-0.626-1.113-1.252-1.623-1.855      c-29.976-35.517-37.093-71.822-37.093-71.822s-29.188-9.482-25.246-45.787c3.825-35.169,9.853-44.396,10.224-44.953l0.023-0.023      c0,0,16.576-37.882,34.729-33.152c18.153,4.729,3.965,55.246,3.965,55.246s5.826-5.471,11.52-5.268      c3.66,0.13,7.446,2.895,8.997,9.997c3.941,18.153,0.788,61.575,0.788,61.575L134.602,330.837z"/>
				<path style="fill:#412424;" d="M65.16,319.966c-0.179,0-0.357-0.084-0.47-0.24c-0.104-0.144-10.366-14.607-7.998-33.167      c2.133-16.705,14.644-62.819,36.068-63.643c0.501,0.055,10.066,1.453,10.468,19.113c0.372,16.416-0.32,45.167-0.389,47.955      l21.96,26.667c0.204,0.247,0.169,0.611-0.079,0.815c-0.246,0.203-0.614,0.169-0.815-0.079l-22.098-26.833      c-0.089-0.108-0.136-0.243-0.132-0.383c0.008-0.308,0.784-30.965,0.395-48.115c-0.377-16.595-8.994-17.937-9.361-17.985      c-20.58,0.799-32.766,46.191-34.866,62.636c-2.309,18.092,7.686,32.2,7.787,32.34c0.188,0.26,0.129,0.623-0.13,0.809      C65.397,319.931,65.278,319.966,65.16,319.966z"/>
				<path style="fill:#412424;" d="M80.956,229.595c-0.049,0-0.098-0.006-0.147-0.019c-0.31-0.082-0.495-0.398-0.413-0.708      c0.097-0.37,9.638-37.098,1.856-50.256c-1.349-2.281-3.166-3.721-5.402-4.28c-14.907-3.713-33.884,32.491-34.074,32.858      c-0.148,0.284-0.495,0.396-0.781,0.247c-0.284-0.147-0.395-0.497-0.247-0.781c0.791-1.529,19.614-37.416,35.383-33.448      c2.548,0.637,4.606,2.258,6.118,4.816c8.027,13.574-1.33,49.613-1.733,51.141C81.448,229.423,81.213,229.595,80.956,229.595z"/>
			</g>
		</g>
		<g>
			<g>
				<path style="fill:#FFEEDC;" d="M168.559,364.902c4.801,5.293,7.001,12.056,6.657,18.713c-0.305,6.659-3.153,13.175-8.446,17.977      l-45.218,41.012c-9.833,8.919-24.775,8.852-34.534,0.3c-0.748-0.62-1.472-1.337-2.155-2.09      c-4.783-5.273-6.983-12.035-6.677-18.695c0.344-6.657,3.191-13.174,8.485-17.975l45.218-41.012      c10.2-9.251,25.864-8.838,35.578,0.645C167.837,364.147,168.208,364.515,168.559,364.902z"/>
				<path style="fill:#FFA34F;" d="M113.686,379.641l34.882,38.459l-27.017,24.504c-10.587,9.602-27.088,8.798-36.69-1.79      c-4.783-5.273-6.983-12.035-6.677-18.695c0.344-6.657,3.191-13.174,8.485-17.975L113.686,379.641z"/>
				<g>
					<path style="fill:#FFFFFF;" d="M101.276,402.415l-6.844,6.207c-1.311,1.188-3.355,1.089-4.543-0.221l0,0       c-1.188-1.31-1.089-3.355,0.222-4.543l6.844-6.208c1.31-1.188,3.355-1.088,4.543,0.222l0,0       C102.686,399.182,102.586,401.226,101.276,402.415z"/>
					<path style="fill:#FFFFFF;" d="M122.935,382.77l-14.902,13.515c-1.31,1.189-3.355,1.089-4.543-0.222l0,0       c-1.189-1.31-1.089-3.355,0.221-4.543l14.902-13.515c1.31-1.189,3.355-1.089,4.543,0.222l0,0       C124.345,379.537,124.245,381.582,122.935,382.77z"/>
				</g>
			</g>
			<g>
				<circle style="fill:#BB8C98;" cx="160.755" cy="453.85" r="26.34"/>
				<circle style="fill:#EDD9DE;" cx="158.091" cy="451.186" r="26.34"/>
				<g>
					<line style="fill:#EDD9DE;" x1="143.885" y1="429.582" x2="174.961" y2="471.312"/>
					<path style="fill:#FFFFFF;" d="M174.961,471.891c-0.177,0-0.351-0.08-0.465-0.233l-31.076-41.73       c-0.191-0.257-0.138-0.62,0.119-0.812c0.256-0.191,0.618-0.14,0.812,0.119l31.076,41.73c0.191,0.257,0.138,0.62-0.119,0.812       C175.203,471.854,175.082,471.891,174.961,471.891z"/>
				</g>
			</g>
			<g>
				
					<ellipse transform="matrix(0.9995 -0.0316 0.0316 0.9995 -13.932 7.3628)" style="fill:#BB8C98;" cx="226.086" cy="444.668" rx="26.34" ry="26.34"/>
				
					<ellipse transform="matrix(0.8549 -0.5188 0.5188 0.8549 -196.4841 180.3488)" style="fill:#EDD9DE;" cx="224.166" cy="441.427" rx="26.34" ry="26.34"/>
				<g>
					<line style="fill:#EDD9DE;" x1="215.76" y1="416.975" x2="235.519" y2="465.107"/>
					<path style="fill:#FFFFFF;" d="M235.519,465.687c-0.228,0-0.444-0.136-0.537-0.36l-19.758-48.133       c-0.121-0.295,0.02-0.634,0.317-0.756c0.295-0.12,0.635,0.02,0.756,0.317l19.758,48.133c0.121,0.295-0.02,0.634-0.317,0.756       C235.667,465.673,235.592,465.687,235.519,465.687z"/>
				</g>
			</g>
		</g>
		<g>
			<g>
				<path style="fill:#FFFFFF;" d="M263.255,52.185c0,4.086-3.313,7.399-7.399,7.399c-4.086,0-7.399-3.312-7.399-7.399      c0-4.087,3.313-7.399,7.399-7.399C259.943,44.786,263.255,48.099,263.255,52.185z"/>
				<path style="fill:#FFFFFF;" d="M293.147,93.915c0,4.086-3.313,7.399-7.399,7.399s-7.399-3.312-7.399-7.399      c0-4.087,3.313-7.399,7.399-7.399S293.147,89.829,293.147,93.915z"/>
				<path style="fill:#FFFFFF;" d="M403.243,115.126c0,4.086-3.312,7.399-7.399,7.399c-4.087,0-7.399-3.313-7.399-7.399      c0-4.086,3.312-7.399,7.399-7.399C399.931,107.727,403.243,111.039,403.243,115.126z"/>
				<circle style="fill:#FFFFFF;" cx="378.482" cy="403.439" r="7.399"/>
				<circle style="fill:#FFFFFF;" cx="49.77" cy="332.063" r="7.399"/>
			</g>
			<g>
				<polygon style="fill:#FFEEDC;" points="252.771,93.902 265.426,96.935 252.995,100.377 249.962,113.032 246.52,100.601       233.866,97.568 246.297,94.126 249.329,81.471     "/>
			</g>
			<g>
				<polygon style="fill:#FFEEDC;" points="73.052,368.713 85.707,371.746 73.276,375.188 70.243,387.842 66.801,375.411       54.147,372.379 66.578,368.937 69.61,356.282     "/>
			</g>
			<g>
				<polygon style="fill:#FFEEDC;" points="340.599,417.645 353.254,420.678 340.823,424.12 337.79,436.774 334.348,424.343       321.693,421.31 334.124,417.868 337.157,405.214     "/>
			</g>
		</g>
		<g>
			
				<ellipse transform="matrix(0.8573 -0.5148 0.5148 0.8573 4.4018 185.9389)" style="fill:#BB8C98;" cx="337.613" cy="85.029" rx="26.34" ry="26.34"/>
			
				<ellipse transform="matrix(0.9986 -0.0534 0.0534 0.9986 -3.8858 18.0282)" style="fill:#EDD9DE;" cx="335.693" cy="81.788" rx="26.34" ry="26.34"/>
			<g>
				<line style="fill:#EDD9DE;" x1="327.287" y1="57.336" x2="347.046" y2="105.468"/>
				<path style="fill:#FFFFFF;" d="M347.046,106.047c-0.228,0-0.444-0.136-0.537-0.36l-19.758-48.132      c-0.121-0.295,0.02-0.634,0.317-0.756c0.297-0.117,0.635,0.02,0.756,0.317l19.758,48.132c0.121,0.295-0.02,0.634-0.317,0.756      C347.194,106.033,347.119,106.047,347.046,106.047z"/>
			</g>
		</g>
	</g>
</g>















</svg>
