<svg width="24" height="24" viewBox="0 0 24 24" fill="none" xmlns="http://www.w3.org/2000/svg">
<g clip-path="url(#clip0_1_6948)">
<path d="M22.2856 11.1428H15.4284C14.955 11.1428 14.5713 11.5266 14.5713 12V22.2857C14.5713 22.7591 14.955 23.1428 15.4284 23.1428H22.2856C22.759 23.1428 23.1427 22.7591 23.1427 22.2857V12C23.1427 11.5266 22.759 11.1428 22.2856 11.1428Z" stroke="#172C45" stroke-width="1.5" stroke-linecap="round" stroke-linejoin="round"/>
<path d="M22.2856 0.857178H15.4284C14.955 0.857178 14.5713 1.24093 14.5713 1.71432V5.16003C14.5713 5.63342 14.955 6.01718 15.4284 6.01718H22.2856C22.759 6.01718 23.1427 5.63342 23.1427 5.16003V1.71432C23.1427 1.24093 22.759 0.857178 22.2856 0.857178Z" stroke="#172C45" stroke-width="1.5" stroke-linecap="round" stroke-linejoin="round"/>
<path d="M8.57171 0.857178H1.71456C1.24118 0.857178 0.857422 1.24093 0.857422 1.71432V12C0.857422 12.4734 1.24118 12.8572 1.71456 12.8572H8.57171C9.04509 12.8572 9.42885 12.4734 9.42885 12V1.71432C9.42885 1.24093 9.04509 0.857178 8.57171 0.857178Z" stroke="#172C45" stroke-width="1.5" stroke-linecap="round" stroke-linejoin="round"/>
<path d="M8.57171 17.9829H1.71456C1.24118 17.9829 0.857422 18.3667 0.857422 18.8401V22.2858C0.857422 22.7592 1.24118 23.1429 1.71456 23.1429H8.57171C9.04509 23.1429 9.42885 22.7592 9.42885 22.2858V18.8401C9.42885 18.3667 9.04509 17.9829 8.57171 17.9829Z" stroke="#172C45" stroke-width="1.5" stroke-linecap="round" stroke-linejoin="round"/>
</g>
<defs>
<clipPath id="clip0_1_6948">
<rect width="24" height="24" fill="white"/>
</clipPath>
</defs>
</svg>
