<svg width="30" height="30" viewBox="0 0 30 30" fill="none" xmlns="http://www.w3.org/2000/svg">
<path fill-rule="evenodd" clip-rule="evenodd" d="M15 7.5V1.25H7.5C5.42893 1.25 3.75 2.92893 3.75 5V25C3.75 27.0711 5.42893 28.75 7.5 28.75H22.5C24.5711 28.75 26.25 27.0711 26.25 25V11.25H18.75C16.6789 11.25 15 9.57107 15 7.5ZM17.5 7.5V1.94505C17.5913 2.01004 17.68 2.07933 17.7657 2.15279L24.9405 8.30262C25.101 8.44019 25.2483 8.58997 25.3816 8.75H18.75C18.0596 8.75 17.5 8.19036 17.5 7.5ZM8.75 16.25H18.75V13.75H8.75V16.25ZM14.375 20H8.75V17.5H14.375V20ZM8.75 23.75H17.5V21.25H8.75V23.75Z" fill="#172C45"/>
</svg>
