<svg width="24" height="24" viewBox="0 0 24 24" fill="none" xmlns="http://www.w3.org/2000/svg">
<g clip-path="url(#clip0_1_6978)">
<path d="M12.806 11.8285C12.5518 11.9389 12.2775 11.9959 12.0003 11.9959C11.7231 11.9959 11.4489 11.9389 11.1946 11.8285L1.42318 7.30276C1.26451 7.22272 1.13117 7.10022 1.038 6.94888C0.944837 6.79755 0.895508 6.62332 0.895508 6.44561C0.895508 6.2679 0.944837 6.09367 1.038 5.94234C1.13117 5.791 1.26451 5.6685 1.42318 5.58847L11.1946 1.02847C11.4489 0.918058 11.7231 0.861084 12.0003 0.861084C12.2775 0.861084 12.5518 0.918058 12.806 1.02847L22.5775 5.55418C22.7361 5.63421 22.8695 5.75672 22.9626 5.90805C23.0558 6.05939 23.1051 6.23361 23.1051 6.41133C23.1051 6.58904 23.0558 6.76326 22.9626 6.9146C22.8695 7.06593 22.7361 7.18844 22.5775 7.26847L12.806 11.8285Z" stroke="#172C45" stroke-width="1.5" stroke-linecap="round" stroke-linejoin="round"/>
<path d="M23.1431 12.5999L12.686 17.417C12.4627 17.5189 12.22 17.5716 11.9746 17.5716C11.7291 17.5716 11.4865 17.5189 11.2631 17.417L0.857422 12.5999" stroke="#172C45" stroke-width="1.5" stroke-linecap="round" stroke-linejoin="round"/>
<path d="M23.1431 18.1714L12.686 22.9885C12.4627 23.0904 12.22 23.1431 11.9746 23.1431C11.7291 23.1431 11.4865 23.0904 11.2631 22.9885L0.857422 18.1714" stroke="#172C45" stroke-width="1.5" stroke-linecap="round" stroke-linejoin="round"/>
</g>
<defs>
<clipPath id="clip0_1_6978">
<rect width="24" height="24" fill="white"/>
</clipPath>
</defs>
</svg>
