<svg width="31" height="31" viewBox="0 0 31 31" fill="none" xmlns="http://www.w3.org/2000/svg">
<g clip-path="url(#clip0_1_1044)">
<path d="M19.3257 28.3014C20.6453 29.1527 22.2178 29.5237 23.7788 29.352C25.3398 29.1803 26.7941 28.4764 27.8971 27.3585L28.8614 26.4157C29.2841 25.9833 29.5208 25.4026 29.5208 24.7978C29.5208 24.1931 29.2841 23.6124 28.8614 23.18L24.7685 19.13C24.3397 18.7086 23.7626 18.4724 23.1614 18.4724C22.5602 18.4724 21.983 18.7086 21.5542 19.13V19.13C21.1218 19.5527 20.5411 19.7894 19.9364 19.7894C19.3317 19.7894 18.7509 19.5527 18.3185 19.13L11.89 12.7014C11.6755 12.4901 11.5052 12.2382 11.389 11.9604C11.2727 11.6827 11.2129 11.3846 11.2129 11.0835C11.2129 10.7825 11.2727 10.4844 11.389 10.2066C11.5052 9.92888 11.6755 9.67702 11.89 9.46568V9.46568C12.3114 9.03689 12.5475 8.45974 12.5475 7.85854C12.5475 7.25734 12.3114 6.68019 11.89 6.25139L7.81853 2.17997C7.38611 1.75721 6.8054 1.52051 6.20067 1.52051C5.59594 1.52051 5.01523 1.75721 4.58281 2.17997L3.63996 3.14425C2.52213 4.24727 1.81817 5.70154 1.64646 7.26254C1.47475 8.82353 1.84576 10.3961 2.6971 11.7157C7.13291 18.253 12.777 23.8825 19.3257 28.3014V28.3014Z" stroke="#172C45" stroke-width="1.5" stroke-linecap="round" stroke-linejoin="round"/>
</g>
<defs>
<clipPath id="clip0_1_1044">
<rect width="30" height="30" fill="white" transform="translate(0.554688 0.444336)"/>
</clipPath>
</defs>
</svg>
