<svg width="30" height="30" viewBox="0 0 30 30" fill="none" xmlns="http://www.w3.org/2000/svg">
<path d="M24.6431 10.7151C24.6431 16.0508 15.0003 28.9294 15.0003 28.9294C15.0003 28.9294 5.35742 16.0508 5.35742 10.7151C5.35742 8.15768 6.37336 5.70498 8.18175 3.89659C9.99014 2.08821 12.4428 1.07227 15.0003 1.07227C17.5577 1.07227 20.0104 2.08821 21.8188 3.89659C23.6272 5.70498 24.6431 8.15768 24.6431 10.7151V10.7151Z" stroke="#172C45" stroke-width="1.5" stroke-linecap="round" stroke-linejoin="round"/>
<path d="M14.9994 13.9286C16.7746 13.9286 18.2137 12.4895 18.2137 10.7143C18.2137 8.93908 16.7746 7.5 14.9994 7.5C13.2242 7.5 11.7852 8.93908 11.7852 10.7143C11.7852 12.4895 13.2242 13.9286 14.9994 13.9286Z" stroke="#172C45" stroke-width="1.5" stroke-linecap="round" stroke-linejoin="round"/>
</svg>
