<svg width="24" height="24" viewBox="0 0 24 24" fill="none" xmlns="http://www.w3.org/2000/svg">
<g clip-path="url(#clip0_1_1453)">
<path d="M5.14265 23.1428C7.50958 23.1428 9.42836 21.2241 9.42836 18.8571C9.42836 16.4902 7.50958 14.5714 5.14265 14.5714C2.77571 14.5714 0.856934 16.4902 0.856934 18.8571C0.856934 21.2241 2.77571 23.1428 5.14265 23.1428Z" stroke="#172C45" stroke-width="1.5" stroke-linecap="round" stroke-linejoin="round"/>
<path d="M9.42859 5.14281V2.57138C9.42859 2.11672 9.24797 1.68069 8.92648 1.3592C8.60499 1.03771 8.16896 0.857095 7.7143 0.857095H5.69144C5.28797 0.849757 4.89484 0.98499 4.58126 1.23899C4.26768 1.49299 4.05376 1.84946 3.97716 2.24567L0.942871 18" stroke="#172C45" stroke-width="1.5" stroke-linecap="round" stroke-linejoin="round"/>
<path d="M7.71387 9.42847H16.2853" stroke="#172C45" stroke-width="1.5" stroke-linecap="round" stroke-linejoin="round"/>
<path d="M9.42822 13.7142V18.8571" stroke="#172C45" stroke-width="1.5" stroke-linecap="round" stroke-linejoin="round"/>
<path d="M18.857 23.1428C21.2239 23.1428 23.1427 21.2241 23.1427 18.8571C23.1427 16.4902 21.2239 14.5714 18.857 14.5714C16.4901 14.5714 14.5713 16.4902 14.5713 18.8571C14.5713 21.2241 16.4901 23.1428 18.857 23.1428Z" stroke="#172C45" stroke-width="1.5" stroke-linecap="round" stroke-linejoin="round"/>
<path d="M14.5713 5.14281V2.57138C14.5713 2.11672 14.7519 1.68069 15.0734 1.3592C15.3949 1.03771 15.8309 0.857095 16.2856 0.857095H18.3084C18.7119 0.849757 19.105 0.98499 19.4186 1.23899C19.7322 1.49299 19.9461 1.84946 20.0227 2.24567L23.0913 18" stroke="#172C45" stroke-width="1.5" stroke-linecap="round" stroke-linejoin="round"/>
<path d="M14.5713 13.7142V18.8571" stroke="#172C45" stroke-width="1.5" stroke-linecap="round" stroke-linejoin="round"/>
</g>
<defs>
<clipPath id="clip0_1_1453">
<rect width="24" height="24" fill="white"/>
</clipPath>
</defs>
</svg>
