<svg width="30" height="30" viewBox="0 0 30 30" fill="none" xmlns="http://www.w3.org/2000/svg">
<g clip-path="url(#clip0_1_7388)">
<path fill-rule="evenodd" clip-rule="evenodd" d="M14.6492 1.01413C14.696 0.856986 14.8408 0.748535 15.0051 0.748535C15.1694 0.748535 15.3142 0.856986 15.361 1.01413C15.361 1.01413 16.0123 3.19734 16.7104 5.53901C17.8228 9.2697 20.7411 12.188 24.4718 13.3004C26.8134 13.9985 28.9966 14.6498 28.9966 14.6498C29.1538 14.6965 29.2622 14.8414 29.2622 15.0057C29.2622 15.1699 29.1538 15.3148 28.9966 15.3615C28.9966 15.3615 26.8134 16.0128 24.4718 16.7109C20.7411 17.8233 17.8228 20.7416 16.7104 24.4723C16.0123 26.814 15.361 28.9972 15.361 28.9972C15.3142 29.1543 15.1694 29.2628 15.0051 29.2628C14.8408 29.2628 14.696 29.1543 14.6492 28.9972C14.6492 28.9972 13.9979 26.814 13.2998 24.4723C12.1875 20.7416 9.26913 17.8233 5.53845 16.7109C3.19679 16.0128 1.01358 15.3615 1.01358 15.3615C0.856427 15.3148 0.747986 15.1699 0.747986 15.0057C0.747986 14.8414 0.856427 14.6965 1.01358 14.6498C1.01358 14.6498 3.19679 13.9985 5.53845 13.3004C9.26913 12.188 12.1875 9.2697 13.2998 5.53901C13.9979 3.19734 14.6492 1.01413 14.6492 1.01413Z" fill="#172C45"/>
</g>
<defs>
<clipPath id="clip0_1_7388">
<rect width="30" height="30" fill="white"/>
</clipPath>
</defs>
</svg>
