<svg width="24" height="24" viewBox="0 0 24 24" fill="none" xmlns="http://www.w3.org/2000/svg">
<g clip-path="url(#clip0_1_1439)">
<path d="M7.71408 22.2857C11.5012 22.2857 14.5712 19.2156 14.5712 15.4286C14.5712 11.6415 11.5012 8.57141 7.71408 8.57141C3.92698 8.57141 0.856934 11.6415 0.856934 15.4286C0.856934 19.2156 3.92698 22.2857 7.71408 22.2857Z" stroke="#172C45" stroke-width="1.5" stroke-linecap="round" stroke-linejoin="round"/>
<path d="M16.2854 22.2857C20.0725 22.2857 23.1425 19.2156 23.1425 15.4286C23.1425 11.6415 20.0725 8.57141 16.2854 8.57141C12.4983 8.57141 9.42822 11.6415 9.42822 15.4286C9.42822 19.2156 12.4983 22.2857 16.2854 22.2857Z" stroke="#172C45" stroke-width="1.5" stroke-linecap="round" stroke-linejoin="round"/>
<path d="M11.9997 15.4285C15.7868 15.4285 18.8569 12.3585 18.8569 8.57138C18.8569 4.78428 15.7868 1.71423 11.9997 1.71423C8.21263 1.71423 5.14258 4.78428 5.14258 8.57138C5.14258 12.3585 8.21263 15.4285 11.9997 15.4285Z" stroke="#172C45" stroke-width="1.5" stroke-linecap="round" stroke-linejoin="round"/>
</g>
<defs>
<clipPath id="clip0_1_1439">
<rect width="24" height="24" fill="white"/>
</clipPath>
</defs>
</svg>
