<svg width="60" height="60" viewBox="0 0 60 60" fill="none" xmlns="http://www.w3.org/2000/svg">
<path d="M45.5985 6.59998H14.3985C13.6792 6.61973 12.9746 6.80847 12.3418 7.15095C11.7089 7.49343 11.1656 7.98003 10.7556 8.5714L2.95562 19.3714C2.37643 20.1899 2.08718 21.1783 2.13377 22.1799C2.18035 23.1815 2.56011 24.1388 3.21276 24.9L26.6128 51.8571C27.0134 52.3733 27.5267 52.7911 28.1135 53.0784C28.7003 53.3658 29.3451 53.5152 29.9985 53.5152C30.6519 53.5152 31.2966 53.3658 31.8834 53.0784C32.4703 52.7911 32.9836 52.3733 33.3842 51.8571L56.7842 24.9C57.4368 24.1388 57.8166 23.1815 57.8632 22.1799C57.9098 21.1783 57.6205 20.1899 57.0413 19.3714L49.2413 8.5714C48.8314 7.98003 48.288 7.49343 47.6552 7.15095C47.0223 6.80847 46.3178 6.61973 45.5985 6.59998V6.59998Z" stroke="#172C45" stroke-width="1.5" stroke-linecap="round" stroke-linejoin="round"/>
<path d="M27.7696 6.55713L17.3125 22.7571L29.9982 53.4" stroke="#172C45" stroke-width="1.5" stroke-linecap="round" stroke-linejoin="round"/>
<path d="M32.3571 6.55713L42.7714 22.7571L30 53.4" stroke="#172C45" stroke-width="1.5" stroke-linecap="round" stroke-linejoin="round"/>
<path d="M2.22656 22.7573H57.7694" stroke="#172C45" stroke-width="1.5" stroke-linecap="round" stroke-linejoin="round"/>
</svg>
