<svg width="24" height="24" viewBox="0 0 24 24" fill="none" xmlns="http://www.w3.org/2000/svg">
<g clip-path="url(#clip0_1_6933)">
<path d="M5.57143 10.2857C8.17506 10.2857 10.2857 8.17509 10.2857 5.57146C10.2857 2.96784 8.17506 0.857178 5.57143 0.857178C2.9678 0.857178 0.857147 2.96784 0.857147 5.57146C0.857147 8.17509 2.9678 10.2857 5.57143 10.2857Z" stroke="#172C45" stroke-width="1.5" stroke-linecap="round" stroke-linejoin="round"/>
<path d="M18.4286 10.2857C21.0322 10.2857 23.1429 8.17509 23.1429 5.57146C23.1429 2.96784 21.0322 0.857178 18.4286 0.857178C15.825 0.857178 13.7143 2.96784 13.7143 5.57146C13.7143 8.17509 15.825 10.2857 18.4286 10.2857Z" stroke="#172C45" stroke-width="1.5" stroke-linecap="round" stroke-linejoin="round"/>
<path d="M5.57143 23.1429C8.17506 23.1429 10.2857 21.0323 10.2857 18.4286C10.2857 15.825 8.17506 13.7144 5.57143 13.7144C2.9678 13.7144 0.857147 15.825 0.857147 18.4286C0.857147 21.0323 2.9678 23.1429 5.57143 23.1429Z" stroke="#172C45" stroke-width="1.5" stroke-linecap="round" stroke-linejoin="round"/>
<path d="M18.4286 23.1429C21.0322 23.1429 23.1429 21.0323 23.1429 18.4286C23.1429 15.825 21.0322 13.7144 18.4286 13.7144C15.825 13.7144 13.7143 15.825 13.7143 18.4286C13.7143 21.0323 15.825 23.1429 18.4286 23.1429Z" stroke="#172C45" stroke-width="1.5" stroke-linecap="round" stroke-linejoin="round"/>
</g>
<defs>
<clipPath id="clip0_1_6933">
<rect width="24" height="24" fill="white"/>
</clipPath>
</defs>
</svg>
