<svg width="50" height="50" viewBox="0 0 50 50" fill="none" xmlns="http://www.w3.org/2000/svg">
<circle cx="25" cy="25" r="25" fill="#BEF1DE"/>
<path d="M37.9822 29.8242C37.9357 29.4232 37.7954 28.9925 37.5653 28.5428C37.1447 27.7213 36.4251 26.8269 35.4261 25.8863C34.9789 25.4651 34.4849 25.0427 33.95 24.623C33.6622 24.9123 33.361 25.2018 33.0462 25.4915C33.5988 25.9197 34.1063 26.3505 34.5616 26.7794C35.4446 27.6113 36.0969 28.4136 36.4481 29.0995C36.661 29.5154 36.8707 30.1019 36.6594 30.5338C36.4481 30.9656 35.8534 31.1701 35.3915 31.2657C34.6291 31.423 33.5871 31.4209 32.3768 31.2596C31.5153 31.1449 30.59 30.9549 29.6204 30.6983C29.7493 29.8508 29.8489 28.9646 29.9175 28.0513C29.9284 27.9112 29.9382 27.7705 29.947 27.6291C30.9736 26.8657 31.9277 26.0802 32.7858 25.2924C33.1014 25.0027 33.4037 24.7131 33.6925 24.4235C34.2278 23.8901 34.7349 23.3299 35.2118 22.7451C35.2895 22.6489 35.365 22.5537 35.4381 22.4596C35.8629 22.5618 36.3102 22.5197 36.7077 22.34C37.1052 22.1602 37.4296 21.8535 37.6285 21.4693C37.8273 21.0851 37.889 20.646 37.8035 20.223C37.7181 19.7999 37.4904 19.4177 37.1574 19.1381C37.1962 18.9295 37.2142 18.7176 37.2111 18.5055C37.2016 18.0488 37.08 17.6424 36.8496 17.2973C36.6191 16.9522 36.2886 16.6816 35.8669 16.493C35.495 16.3264 35.048 16.2236 34.5386 16.1872C33.6081 16.1208 32.4613 16.2705 31.1295 16.6321C30.5213 16.7971 29.8868 17.003 29.233 17.2464C29.209 17.1406 29.1842 17.0356 29.1588 16.9315C29.0238 16.3748 28.8738 15.8448 28.7096 15.3461C28.2834 14.0503 27.7795 13.023 27.2106 12.293C26.8996 11.8934 26.5665 11.5818 26.221 11.3669C25.8294 11.1235 25.4183 11 24.9995 11C24.5808 11 24.1697 11.1235 23.7781 11.3669C23.4326 11.5818 23.0995 11.8934 22.7885 12.293C22.2204 13.023 21.7157 14.0503 21.2895 15.3464C21.0157 16.1778 20.7817 17.0959 20.5905 18.0799C19.6557 17.8358 18.7589 17.6522 17.9175 17.5346C17.8644 17.0601 17.6337 16.6222 17.2705 16.3066C16.9073 15.9911 16.4378 15.8207 15.9539 15.8287C15.4701 15.8367 15.0067 16.0226 14.6544 16.35C14.3022 16.6774 14.0865 17.1227 14.0496 17.5988C13.6774 17.6995 13.3506 17.8356 13.0767 18.0053C12.6845 18.2479 12.394 18.5597 12.212 18.9321C12.0299 19.3044 11.965 19.7233 12.0177 20.177C12.0642 20.5779 12.2045 21.0086 12.4346 21.4583C12.8552 22.2799 13.5748 23.1742 14.5738 24.1148C15.021 24.5361 15.515 24.9585 16.05 25.3781C16.3377 25.0888 16.6389 24.7993 16.9537 24.5096C16.4011 24.0814 15.8936 23.6507 15.4383 23.2217C14.5553 22.3899 13.903 21.5876 13.5519 20.9017C13.3389 20.4857 13.1292 19.8992 13.3405 19.4674C13.5151 19.1094 13.954 18.9077 14.3623 18.7948C14.5419 19.0651 14.7878 19.2862 15.0771 19.4375C15.3665 19.5889 15.69 19.6657 16.0175 19.6606C16.345 19.6556 16.6659 19.569 16.9504 19.4088C17.2349 19.2486 17.4737 19.0201 17.6446 18.7444C18.4994 18.8594 19.4182 19.0477 20.3798 19.3025C20.2509 20.15 20.1513 21.0362 20.0827 21.9495C20.0719 22.0895 20.062 22.2302 20.0533 22.3718C19.0266 23.1351 18.0726 23.9206 17.2145 24.7085C16.8988 24.9981 16.5966 25.2877 16.3078 25.5773C15.7725 26.1107 15.2654 26.6709 14.7884 27.2557C13.9261 28.3202 13.334 29.3009 13.0288 30.1705C12.8615 30.6467 12.7809 31.0923 12.7893 31.4953C12.7986 31.9521 12.9202 32.3584 13.1507 32.7035C13.3812 33.0486 13.7117 33.3192 14.1333 33.5079C14.5052 33.6744 14.9522 33.7772 15.4617 33.8136C15.6049 33.8243 15.7532 33.8296 15.9064 33.8296C16.7494 33.8296 17.7433 33.6754 18.8707 33.3694C19.479 33.2044 20.1134 32.9984 20.7672 32.755C20.7913 32.8609 20.816 32.9658 20.8415 33.07C20.9764 33.6266 21.1264 34.1566 21.2906 34.6554C21.7163 35.9502 22.2202 36.9765 22.7892 37.707C23.1001 38.1066 23.4332 38.4182 23.7788 38.6331C24.1704 38.8765 24.5815 39 25.0002 39C25.4189 39 25.83 38.8765 26.2216 38.6331C26.5672 38.4182 26.9003 38.1066 27.2112 37.707C27.3582 37.5167 27.4945 37.3187 27.6194 37.1136C28.0405 37.1569 28.4644 37.0634 28.8266 36.8471C29.1888 36.6308 29.4695 36.3038 29.6259 35.9156C29.7823 35.5275 29.806 35.0996 29.6932 34.697C29.5804 34.2944 29.3373 33.9392 29.0011 33.6855C29.1537 33.1263 29.2903 32.5361 29.4102 31.9203C30.3922 32.1769 31.3322 32.3664 32.2102 32.4835C32.8835 32.5733 33.5054 32.6182 34.0722 32.6182C34.6574 32.6182 35.185 32.5701 35.6489 32.4739C36.1488 32.3706 36.5778 32.2096 36.9238 31.9955C37.3161 31.7529 37.6066 31.4411 37.7886 31.0688C37.9707 30.6964 38.0349 30.2778 37.9822 29.8242ZM18.5378 32.177C17.3606 32.4967 16.3279 32.6363 15.5511 32.5809C15.0797 32.5472 14.462 32.4232 14.1951 32.0229C13.9282 31.6227 14.0559 31.0139 14.2105 30.5735C14.4656 29.8476 15.0031 28.9665 15.7653 28.0255C16.2192 27.465 16.7419 26.893 17.3234 26.3177C17.616 26.0281 17.9231 25.7382 18.2447 25.4479C18.7867 24.9583 19.3675 24.4697 19.9811 23.9868C19.9776 24.1258 19.975 24.2648 19.9733 24.4038C19.9704 24.6017 19.9689 24.8002 19.9689 24.9994C19.9689 25.5271 19.9787 26.0498 19.9983 26.5676C19.4855 26.2615 18.9925 25.9501 18.5191 25.6335C18.1963 25.9235 17.8874 26.2136 17.5926 26.5036C18.3679 27.0328 19.2018 27.5502 20.0806 28.0494C20.163 29.1464 20.2901 30.2044 20.459 31.2033C20.4771 31.3114 20.4958 31.4188 20.5152 31.5256C19.8317 31.7874 19.1693 32.0051 18.5378 32.177ZM28.3527 19.2852C28.4525 19.9124 28.5354 20.5635 28.6006 21.2332C28.1367 20.9919 27.6635 20.7567 27.1808 20.5275C26.94 20.4134 26.6994 20.3019 26.4588 20.193C26.334 20.1366 26.2094 20.0809 26.0849 20.0259C26.8349 19.6306 27.5762 19.2733 28.2992 18.9585C28.3175 19.0666 28.3353 19.1755 28.3527 19.2852ZM22.4803 15.7279C22.8574 14.5823 23.3076 13.6547 23.7817 13.0453C24.0694 12.6757 24.5143 12.235 25 12.235C25.4857 12.235 25.9306 12.6757 26.2184 13.0453C26.6925 13.6547 27.1426 14.5823 27.5197 15.7279C27.6914 16.2496 27.8468 16.808 27.9851 17.3977C28.0098 17.5027 28.034 17.6087 28.0575 17.7158C26.9424 18.1894 25.7858 18.76 24.6193 19.4125C24.49 19.3612 24.3609 19.3108 24.2321 19.2614C23.4069 18.9442 22.5917 18.6626 21.7976 18.4221C21.9832 17.4482 22.2118 16.5429 22.4803 15.7279ZM21.4223 21.0059C21.4702 20.5444 21.5265 20.0927 21.5913 19.6508C22.0096 19.7806 22.4336 19.9216 22.8631 20.0739C22.9919 20.1194 23.121 20.166 23.2505 20.2135C22.9107 20.4212 22.5712 20.635 22.2321 20.855C21.9446 21.0419 21.661 21.231 21.3813 21.4224C21.3941 21.2824 21.4077 21.1436 21.4221 21.0058L21.4223 21.0059ZM21.6473 30.715C21.5474 30.0878 21.4645 29.4367 21.3994 28.767C21.8632 29.0084 22.3364 29.2436 22.8191 29.4726C23.0599 29.5868 23.3006 29.6983 23.5411 29.8072C23.6659 29.8636 23.7905 29.9193 23.915 29.9743C23.165 30.3696 22.4238 30.7269 21.7007 31.0417C21.6824 30.9336 21.6645 30.8246 21.6471 30.7148L21.6473 30.715ZM27.812 33.291C27.4252 33.2926 27.0476 33.4082 26.7277 33.6228C26.4079 33.8375 26.1603 34.1415 26.0166 34.4959C25.873 34.8503 25.84 35.2389 25.9217 35.612C26.0033 35.9851 26.1961 36.3256 26.4752 36.5899C26.3907 36.7217 26.3051 36.8433 26.2184 36.9548C25.9306 37.3237 25.4857 37.7652 25 37.7652C24.5143 37.7652 24.0694 37.3245 23.7817 36.9548C23.3076 36.3455 22.8574 35.4179 22.4803 34.2722C22.3087 33.7506 22.1533 33.1922 22.0149 32.6025C21.9902 32.4975 21.9661 32.3915 21.9426 32.2843C23.0577 31.8108 24.2143 31.2402 25.3807 30.5877C25.5101 30.639 25.6392 30.6893 25.7679 30.7387C26.5935 31.0558 27.4082 31.3367 28.2023 31.5784C28.0884 32.1767 27.9583 32.7492 27.812 33.291ZM28.5778 28.9943C28.5299 29.4558 28.4735 29.9075 28.4087 30.3494C27.9904 30.2197 27.5665 30.0787 27.1369 29.9263C27.0082 29.8808 26.8791 29.8342 26.7496 29.7866C27.0894 29.579 27.4289 29.3652 27.768 29.1452C28.0555 28.9583 28.3391 28.7692 28.6188 28.5778C28.6059 28.7173 28.5922 28.8561 28.5776 28.9943H28.5778ZM28.749 26.5716C28.7438 26.7092 28.7377 26.8463 28.7309 26.9828C28.1982 27.367 27.6476 27.7439 27.0792 28.1135C26.4828 28.5011 25.8838 28.8692 25.2871 29.2152C25.1631 29.1639 25.0388 29.1118 24.9142 29.0587C24.3986 28.8391 23.8811 28.6062 23.3617 28.36C22.6484 28.0216 21.9548 27.6682 21.2862 27.3034C21.2428 26.5509 21.2212 25.7808 21.2212 25C21.2212 24.4705 21.2313 23.9466 21.2516 23.4284C21.2568 23.2908 21.2628 23.1538 21.2696 23.0172C21.8024 22.633 22.3529 22.2561 22.9213 21.8865C23.5177 21.4989 24.1167 21.1308 24.7135 20.7848C24.8374 20.8361 24.9617 20.8883 25.0864 20.9413C25.602 21.1609 26.1195 21.3938 26.6389 21.64C27.3522 21.9784 28.0458 22.3318 28.7143 22.6967C28.7577 23.4491 28.7794 24.2192 28.7794 25C28.7793 25.5295 28.7691 26.0534 28.7488 26.5716H28.749ZM29.4835 18.4731C30.1682 18.212 30.8306 17.9937 31.4621 17.8223C32.4711 17.5484 33.3739 17.4066 34.1005 17.4066C34.2216 17.4066 34.3378 17.4106 34.4488 17.4185C34.9202 17.452 35.5379 17.5762 35.8048 17.9764C35.9376 18.1753 35.9727 18.4255 35.9555 18.682C35.9368 18.682 35.918 18.682 35.8991 18.682C35.5334 18.6819 35.1751 18.7837 34.8655 18.9755C34.5558 19.1674 34.3073 19.4416 34.1486 19.7667C33.9899 20.0917 33.9275 20.4543 33.9684 20.8128C34.0094 21.1713 34.152 21.5111 34.3801 21.7932C34.3324 21.8536 34.2836 21.9143 34.2338 21.9755C33.7799 22.5368 33.2572 23.108 32.6757 23.6832C32.3831 23.9729 32.076 24.2628 31.7544 24.5531C31.2124 25.0427 30.6316 25.5313 30.018 26.0142C30.0215 25.8752 30.0241 25.7362 30.0258 25.5972C30.0287 25.3993 30.0302 25.2008 30.0302 25.0016C30.0302 24.4738 30.0204 23.951 30.0008 23.4334C30.5136 23.7395 31.0066 24.0508 31.48 24.3675C31.8028 24.0774 32.1117 23.7873 32.4065 23.4974C31.6312 22.9682 30.7973 22.4508 29.9185 21.9516C29.8361 20.8545 29.709 19.7966 29.5401 18.7977C29.5218 18.6885 29.5029 18.5805 29.4834 18.4737L29.4835 18.4731Z" fill="#172C45"/>
<path d="M24.9999 26.8123C26.0144 26.8123 26.8367 26.001 26.8367 25.0002C26.8367 23.9994 26.0144 23.188 24.9999 23.188C23.9855 23.188 23.1631 23.9994 23.1631 25.0002C23.1631 26.001 23.9855 26.8123 24.9999 26.8123Z" fill="#172C45"/>
</svg>
