<svg id="Layer_2" data-name="Layer 2" xmlns="http://www.w3.org/2000/svg" viewBox="0 0 32 14.43"><defs><style>.cls-1{fill:#bcbec0}.cls-4{fill:#020204}.cls-5{fill:#bbbdbf}.cls-6{fill:#030305}.cls-7{fill:#040406}.cls-10{fill:#ed1b4d}</style></defs><g id="Layer_1-2" data-name="Layer 1"><path class="cls-10" d="M18.08 14.4c-.31-.05-.46-.28-.37-.58.06-.17.21-.27.45-.28h4.7c.09 0 .19 0 .28-.02.22-.03.33-.16.33-.4 0-.23-.11-.37-.32-.41-.08-.01-.15-.02-.23-.02h-6.85c-.28-.03-.42-.18-.41-.43 0-.24.18-.41.45-.41h5.01c.25 0 .34-.06.41-.3l.03-.12c.1-.24-.01-.44-.34-.44h-1.74c-.09 0-.19 0-.28-.02-.22-.04-.34-.2-.33-.42 0-.22.13-.39.35-.41.26-.03.53-.03.8-.03h1.71c.19 0 .34-.06.45-.21.09-.12.18-.24.26-.37.12-.18.07-.28-.15-.29h-5.84c-.09 0-.19 0-.27-.03-.2-.05-.3-.2-.3-.41 0-.21.12-.35.32-.39.07-.02.15-.03.23-.02 1.59.08 3.18-.01 4.77 0 .77 0 1.53.03 2.3.03.27 0 .53-.02.8-.04.28-.02.44-.24.4-.51-.03-.19-.15-.31-.35-.32-.34-.01-.69-.02-1.03-.02-.67 0-1.33.01-2 .02-.14 0-.28-.02-.41-.04-.21-.04-.29-.14-.3-.34 0-.26.1-.43.3-.47.07-.02.15-.02.23-.02h2.51c.09 0 .18 0 .26-.02.14-.02.24-.11.3-.24.01-.02.02-.05.03-.07.08-.18.17-.22.34-.12.18.1.35.2.53.31 1.16.67 2.32 1.34 3.48 2 .03.02.06.03.09.05.12.08.14.15.07.28-.11.2-.22.39-.33.58l-2.13 3.69c-.39.68-.96 1.11-1.75 1.24-.13.02-.27.03-.41.05h-.49c-.34 0-.66-.01-.99-.01h-4.6Z"/><path class="cls-5" d="M32 2.93c-.02.1-.05.19-.07.29-.08.35-.26.66-.44.97-.29.5-.58 1-.86 1.5-.47.81-.93 1.62-1.4 2.43-.09.16-.18.18-.35.09-.94-.55-1.88-1.1-2.82-1.64-.4-.23-.81-.46-1.21-.69-.03-.02-.05-.03-.08-.05-.13-.1-.14-.16-.04-.3.08-.1.15-.21.22-.32-.03-.01-.04-.03-.06-.03-.23-.03-.37-.27-.35-.48.03-.23.2-.38.46-.38h1.82c.24 0 .39-.11.44-.33.04-.2-.06-.5-.34-.51-.3 0-.6-.01-.9-.02h-.08c.1-.18.2-.35.3-.52.03-.06.07-.11.1-.17.06-.11.03-.17-.09-.17h-.94c-.17 0-.32-.05-.41-.22-.13-.26-.03-.63.34-.64.64-.02 1.29-.02 1.93-.02h1.03c.25 0 .42-.17.43-.42 0-.23-.17-.41-.41-.42h-7.57c-.12 0-.24-.01-.35-.04-.28-.05-.33-.22-.34-.41 0-.23.12-.36.36-.41.02 0 .05 0 .07-.02h9.33c.06.03.11.05.17.06.98.2 1.64.75 1.97 1.7.06.16.09.34.14.5v.66m-1.4-1.18c-.22.04-.31.11-.33.29 0 .08.03.17.05.26.1.32.09.62-.08.91-.29.52-.59 1.02-.89 1.54-.12.21-.24.41-.33.63-.07.15 0 .29.15.38.14.08.3.07.4-.05.12-.15.21-.32.31-.48.29-.5.57-1.01.87-1.5.33-.54.45-1.1.2-1.71-.06-.15-.16-.26-.36-.27Z"/><path d="M19.73 14.41h2.96c.01 0 0 .02 0 .02h-2.95c-.01 0-.01-.02-.01-.02Z" style="fill:#f15078"/><path d="M19.72 14.4s.01.01.01.02H18.1c-.01 0-.01-.01-.01-.02h1.63Z" style="fill:#f47094"/><path d="M22.7 14.43v-.01h.97-.96Z" style="fill:#f5789b"/><path d="M0 5.59h.02v.74H0v-.74Z" style="fill:#4c4c4d"/><path d="M.02 3.61H0v-.73c0-.01 0 0 .02 0v.73Z" style="fill:#49494a"/><path class="cls-10" d="M8.13 7.57c-1.12-.01-2.23-.03-3.33-.05-.16 0-.32-.06-.48-.11-.13-.05-.22-.15-.21-.3 0-.14.08-.26.21-.31.18-.06.36-.11.55-.12.3-.02.6-.01.9-.01h13.58c.23 0 .45.03.66.15.24.13.25.34.04.51-.19.15-.42.19-.65.2h-6.97c-1.28 0-2.55.02-3.83.03-.15 0-.3 0-.46.01Z"/><path class="cls-7" d="M20 3.25c.02.14.06.28.06.42V5.6c0 .27-.06.53-.34.66-.12.05-.25.08-.38.08h-2.07c-.42 0-.67-.26-.67-.68V4.24h.74v1.19c0 .13.03.16.16.16h1.64c.15 0 .17-.02.17-.17V3.78c0-.15-.02-.17-.18-.17H16.6c-.05-.42.21-.73.65-.74.71-.01 1.43 0 2.14 0 .26 0 .48.1.6.37Z"/><path class="cls-6" d="M12.9 3.62h-1.24v-.74h3.44c.1 0 .19.01.29.03.26.06.4.23.45.49.02.08.02.16.02.24v2.7h-.74v-2.5c0-.19-.02-.21-.21-.21h-.78v2.72h-.74V3.63h-.49Z"/><path class="cls-5" d="M24 2.47c-.13.09-.26.12-.41.12h-7.28c-.17 0-.35-.02-.45-.18-.16-.26-.07-.65.35-.67h7.56c.34.08.45.44.22.73Z"/><path class="cls-6" d="M.03 3.61c-.01-.24-.01-.48 0-.73.9-.01 1.8-.01 2.7-.01h.26v.55c0 .13-.03.23-.13.32-.59.58-1.17 1.16-1.75 1.75a.55.55 0 0 1-.09.07c0 .01.01.02.02.03h1.95v.75H.05c-.01-.25-.01-.49-.01-.75.65-.66 1.3-1.31 1.97-1.98H.05Zm23.08 2.73h-2.29V5.6h2.52c.18 0 .2-.02.2-.2v-.24c0-.16-.02-.18-.18-.18H21.4c-.39-.06-.59-.31-.57-.73h2.7c.08 0 .15 0 .23.02.28.05.47.21.5.49.03.36.04.72 0 1.07-.03.33-.27.5-.63.52h-.51Z"/><path class="cls-4" d="M4.13 6.29c-.28-.11-.4-.32-.4-.59V4.24h2.96v.73H4.47v.52c0 .09.08.1.15.1h2.07v.74H4.46c-.11 0-.21-.03-.33-.05Z"/><path class="cls-1" d="M11.13 8.24c-.08-.23-.25-.27-.42-.12-.13.11-.2.22-.18.41.02.31 0 .62 0 .93 0 .13 0 .28.19.31.02 0 .03.03.06.07H9.65s.06-.07.09-.08c.14-.02.17-.11.17-.22V8.15c0-.11-.04-.21-.17-.24-.02 0-.04-.04-.06-.05.02-.01.05-.04.07-.04h.77c0 .09 0 .16.02.27.19-.18.37-.32.63-.32s.45.11.56.36c.09-.07.16-.14.24-.2.23-.18.6-.21.82-.04.13.1.18.24.19.39.02.28.02.57.02.85v.43c0 .11.04.18.15.21.02 0 .05.03.07.05-.03.01-.05.04-.08.04h-.91c-.03 0-.05-.03-.08-.04.02-.02.04-.04.06-.05.1-.03.15-.1.15-.21V8.28c0-.18-.15-.27-.31-.19-.18.09-.31.21-.29.45.02.28 0 .56 0 .84 0 .09 0 .18.03.26.02.05.09.09.14.13.03.02.06.03.08.05v.03c-.03 0-.06.01-.08.01h-.9c-.03 0-.06-.02-.09-.04.03-.02.05-.05.08-.06.09-.04.13-.1.13-.2V8.25Z"/><path class="cls-7" d="M10.03 4.08c-.15.18-.29.35-.43.53-.04.05-.06.11-.06.17v1.56H8.8V4.81c0-.09-.02-.16-.08-.23-.46-.55-.91-1.1-1.36-1.65 0-.01-.02-.03-.04-.06h.78c.05 0 .1.03.13.06.29.35.58.69.86 1.04.02.03.05.06.08.1.18-.22.35-.42.52-.63.14-.17.27-.34.41-.5.03-.04.09-.07.14-.07h.78c-.34.41-.66.81-.99 1.21Z"/><path d="M15 10.1h2.51c.11 0 .22.01.33.04.19.06.27.2.27.4 0 .23-.11.36-.3.41-.06.01-.12.02-.18.02h-3.48c-.36-.03-.53-.36-.36-.67.09-.17.26-.19.43-.2h.79Z" style="fill:#ed1c4d"/><path class="cls-1" d="M1.15 10.79H.21c-.03 0-.07-.03-.1-.04.03-.02.06-.04.09-.05.12-.03.16-.1.16-.27V8.16c0-.17-.04-.21-.2-.27-.02 0-.04-.03-.06-.05.02-.01.04-.03.06-.03h.81v.26s.06-.04.07-.06c.3-.4.95-.33 1.18.17.22.47.22.95-.06 1.4-.23.36-.81.45-1.1.13-.02-.02-.04-.03-.08-.06v.62c0 .1 0 .2.02.3.01.1.08.14.18.14.04 0 .08.03.12.05-.04.01-.08.03-.13.04h-.03m-.03-2.66c-.1.11-.13.24-.12.38v.79c0 .16.17.34.35.37.15.02.27-.06.32-.25.03-.12.05-.25.06-.38.02-.28 0-.57-.09-.84-.07-.18-.26-.24-.43-.14a.55.55 0 0 0-.09.07Zm3.06 1.24V8.33c0-.07-.02-.16-.06-.22-.05-.07-.14-.08-.23-.05-.14.05-.26.21-.26.37v1.05c0 .13.01.24.17.27.01 0 .02.02.03.03v.04c-.03 0-.05.01-.07.01h-.89c-.03 0-.06-.02-.09-.04a.18.18 0 0 1 .07-.05c.18-.06.15-.22.15-.35.01-.31 0-.62 0-.94V7.4c0-.1 0-.2-.03-.28-.02-.05-.09-.09-.14-.13-.02-.02-.04-.04-.06-.05.02-.01.05-.04.07-.04h.78v1.14c.14-.08.26-.18.39-.24.31-.15.67.03.76.36.02.08.03.17.03.25v1.01c0 .07 0 .15.03.22.02.05.08.08.12.12.02.02.06.03.08.05v.03c-.03 0-.06.01-.08.01h-.88c-.03 0-.06-.02-.1-.03.03-.02.05-.05.08-.06.09-.05.12-.12.13-.22v-.15Z"/><path class="cls-6" d="M22.83 2.87h1.44v.74h-3.44c-.08-.41.22-.73.69-.74h1.32Z"/><path class="cls-1" d="M7.05 8.1c.02.12.05.23.05.35v.99c0 .15.05.18.18.11.02-.01.06 0 .1 0-.15.23-.34.35-.6.32a.352.352 0 0 1-.32-.28c-.18.09-.36.2-.55.27-.26.09-.59-.07-.56-.43.02-.18.11-.32.26-.4.25-.15.51-.28.77-.42.06-.03.09-.05.09-.12 0-.11-.02-.21-.02-.32 0-.13-.09-.2-.2-.22-.12-.03-.25-.02-.34.08-.07.07 0 .13.04.19.13.17.09.35-.11.4-.1.02-.22 0-.31-.03-.18-.09-.18-.33-.02-.5.13-.15.31-.23.5-.26.29-.06.58-.08.84.11.07.05.12.13.18.2m-1 1.28s.04.04.06.05c.13.07.38-.01.39-.14.01-.2 0-.41 0-.61-.01 0-.02-.02-.04-.03-.12.11-.25.2-.36.32-.1.11-.15.24-.05.4Zm9.27-1.05v1.05c0 .05.02.13.05.15.03.02.1-.02.18-.03 0 .02.01.06 0 .08a.57.57 0 0 1-.57.25c-.16-.03-.25-.14-.3-.3-.09.06-.17.11-.25.17-.17.11-.36.19-.57.12-.36-.11-.35-.52-.14-.73.1-.1.22-.18.34-.25.18-.1.37-.18.55-.28.04-.02.08-.08.08-.12 0-.13 0-.25-.02-.38-.02-.12-.2-.2-.36-.17-.04 0-.08.02-.12.04-.11.06-.12.11-.04.21.14.16.12.22.05.34-.06.1-.26.14-.4.08a.272.272 0 0 1-.16-.32c.03-.16.13-.27.27-.34.29-.17.6-.21.92-.15.3.06.44.22.48.53 0 .02 0 .03.01.05M14.29 9l-.09.15c-.05.1-.03.21.04.29.08.08.18.07.28.04.1-.04.17-.1.16-.23-.01-.13 0-.27 0-.4 0-.04 0-.08-.01-.16-.14.12-.25.21-.38.32Z"/><path class="cls-6" d="M3.72 3.54v-.66h2.96v.73H3.81c-.04 0-.11.03-.1-.07Z"/><path class="cls-1" d="M8.5 8.96v.59c0 .12.06.18.18.2.04 0 .07.03.1.04 0 .01 0 .02-.01.04-.02 0-.05.01-.07.01h-.96c-.03 0-.06-.03-.09-.04.03-.02.05-.04.08-.05.07-.03.13-.07.13-.15 0-.43.02-.87.02-1.3v-.15c0-.11-.04-.21-.17-.24-.02 0-.04-.04-.06-.05.02-.01.05-.04.07-.04h.69c.06 0 .09.03.09.09v.34c.11-.12.2-.23.31-.33.14-.14.36-.19.5-.12s.19.25.11.42c-.06.12-.21.17-.35.11a.673.673 0 0 1-.11-.07c-.12-.1-.22-.09-.31.04-.14.2-.16.43-.15.67Z"/><path class="cls-4" d="M11.65 5.44v-1.2h.73v2.09h-.73v-.9Z"/></g></svg>