<svg width="32" height="24" viewBox="0 0 32 24" fill="none" xmlns="http://www.w3.org/2000/svg">
<path d="M29.1236 22.0588C30.9213 20.1177 32 18 32 14.4706C32 8.29412 27.5056 2.82353 21.2135 0L19.5955 2.29412C25.5281 5.47059 26.7865 9.52941 27.1461 12.1765C26.2472 11.6471 24.9888 11.4706 23.7303 11.6471C20.4944 12 17.9775 14.4706 17.9775 17.8235C17.9775 19.4118 18.6966 21 19.7753 22.2353C21.0337 23.4706 22.4719 24 24.2697 24C26.2472 24 28.0449 23.1177 29.1236 22.0588ZM11.1461 22.0588C12.9438 20.1177 14.0225 18 14.0225 14.4706C14.0225 8.29412 9.52809 2.82353 3.23595 0L1.61798 2.29412C7.55056 5.47059 8.80899 9.52941 9.16854 12.1765C8.26966 11.6471 7.01123 11.4706 5.75281 11.6471C2.51685 12 0 14.4706 0 17.8235C0 19.4118 0.719101 21 1.79775 22.2353C2.87641 23.4706 4.49438 24 6.29214 24C8.26966 24 10.0674 23.1177 11.1461 22.0588Z" fill="#172C45"/>
</svg>
